# xmcd CD database file
#
# Track frame offsets:
#	150
#	14475
#	28875
#	43428
#	59475
#	78655
#	92250
#	104775
#	123535
#	136697
#	153544
#	173201
#	189609
#
# Disc length: 2723 seconds
#
# Revision: 0
# Processed by: cddbd v1.5.2PL0 Copyright (c) Steve Scherf et al.
# Submitted via: CDex 1.51
#
DISCID=b90aa10d
DTITLE=16 Horsepower - Yours, Truly 2
DYEAR=2011
DGENRE=Country
TTITLE0=Phyllis Ruth
TTITLE1=Flowers In My Heart
TTITLE2=Dead Run
TTITLE3=American Wheeze
TTITLE4=Black Soul Chior
TTITLE5=Bad Moon Rising
TTITLE6=Worry
TTITLE7=The Partisan
TTITLE8=Fire Spirit
TTITLE9=Cindey Alley
TTITLE10=Poor Mouth
TTITLE11=Clogger
TTITLE12=De-railed
EXTD=YEAR: 2011
EXTT0=
EXTT1=
EXTT2=
EXTT3=
EXTT4=
EXTT5=
EXTT6=
EXTT7=
EXTT8=
EXTT9=
EXTT10=
EXTT11=
EXTT12=
PLAYORDER=
